<mxfile host="Electron" agent="Mozilla/5.0 (Windows NT 10.0; Win64; x64) AppleWebKit/537.36 (KHTML, like Gecko) draw.io/25.0.2 Chrome/128.0.6613.186 Electron/32.2.5 Safari/537.36" version="25.0.2">
  <diagram name="Page-1" id="r3EDIFkvTgKT8RTDgE-J">
    <mxGraphModel dx="1050" dy="621" grid="1" gridSize="10" guides="1" tooltips="1" connect="1" arrows="1" fold="1" page="1" pageScale="1" pageWidth="850" pageHeight="1100" math="0" shadow="0">
      <root>
        <mxCell id="0" />
        <mxCell id="1" parent="0" />
        <mxCell id="U3XFC7SvyznPUDkY8S2--26" value="" style="edgeStyle=orthogonalEdgeStyle;rounded=0;orthogonalLoop=1;jettySize=auto;html=1;entryX=0;entryY=0.75;entryDx=0;entryDy=0;" edge="1" parent="1" source="U3XFC7SvyznPUDkY8S2--11" target="U3XFC7SvyznPUDkY8S2--16">
          <mxGeometry relative="1" as="geometry" />
        </mxCell>
        <mxCell id="U3XFC7SvyznPUDkY8S2--11" value="Client" style="sketch=0;outlineConnect=0;fontColor=#232F3E;gradientColor=none;fillColor=#232F3D;strokeColor=none;dashed=0;verticalLabelPosition=bottom;verticalAlign=top;align=center;html=1;fontSize=12;fontStyle=0;aspect=fixed;pointerEvents=1;shape=mxgraph.aws4.client;fontFamily=Helvetica;" vertex="1" parent="1">
          <mxGeometry x="40" y="90" width="80.05" height="78" as="geometry" />
        </mxCell>
        <mxCell id="U3XFC7SvyznPUDkY8S2--34" style="edgeStyle=orthogonalEdgeStyle;rounded=0;orthogonalLoop=1;jettySize=auto;html=1;" edge="1" parent="1" source="U3XFC7SvyznPUDkY8S2--12" target="U3XFC7SvyznPUDkY8S2--35">
          <mxGeometry relative="1" as="geometry">
            <mxPoint x="645" y="440" as="targetPoint" />
          </mxGeometry>
        </mxCell>
        <mxCell id="U3XFC7SvyznPUDkY8S2--12" value="&lt;b&gt;DB&amp;nbsp;&lt;br&gt;RulesInfo&lt;/b&gt;" style="strokeWidth=2;html=1;shape=mxgraph.flowchart.database;whiteSpace=wrap;" vertex="1" parent="1">
          <mxGeometry x="500" y="330" width="90" height="120" as="geometry" />
        </mxCell>
        <mxCell id="U3XFC7SvyznPUDkY8S2--17" style="edgeStyle=orthogonalEdgeStyle;rounded=0;orthogonalLoop=1;jettySize=auto;html=1;exitX=0.995;exitY=0.63;exitDx=0;exitDy=0;exitPerimeter=0;entryX=0;entryY=0.5;entryDx=0;entryDy=0;" edge="1" parent="1" source="U3XFC7SvyznPUDkY8S2--13" target="U3XFC7SvyznPUDkY8S2--14">
          <mxGeometry relative="1" as="geometry">
            <mxPoint x="240" y="440" as="targetPoint" />
          </mxGeometry>
        </mxCell>
        <mxCell id="U3XFC7SvyznPUDkY8S2--13" value="&lt;span style=&quot;font-size:11.0pt;font-family:&amp;quot;Calibri&amp;quot;,sans-serif;&lt;br/&gt;mso-fareast-font-family:Calibri;mso-fareast-theme-font:minor-latin;mso-ansi-language:&lt;br/&gt;#1000;mso-fareast-language:#1000;mso-bidi-language:HE&quot;&gt;Airline APIs&lt;/span&gt;" style="aspect=fixed;sketch=0;html=1;dashed=0;whitespace=wrap;verticalLabelPosition=bottom;verticalAlign=top;fillColor=#2875E2;strokeColor=#ffffff;points=[[0.005,0.63,0],[0.1,0.2,0],[0.9,0.2,0],[0.5,0,0],[0.995,0.63,0],[0.72,0.99,0],[0.5,1,0],[0.28,0.99,0]];shape=mxgraph.kubernetes.icon2;prIcon=api" vertex="1" parent="1">
          <mxGeometry x="36.72" y="480" width="83.33" height="80" as="geometry" />
        </mxCell>
        <mxCell id="U3XFC7SvyznPUDkY8S2--24" style="edgeStyle=orthogonalEdgeStyle;rounded=0;orthogonalLoop=1;jettySize=auto;html=1;entryX=0.5;entryY=1;entryDx=0;entryDy=0;" edge="1" parent="1" source="U3XFC7SvyznPUDkY8S2--14" target="U3XFC7SvyznPUDkY8S2--16">
          <mxGeometry relative="1" as="geometry" />
        </mxCell>
        <mxCell id="U3XFC7SvyznPUDkY8S2--103" value="RabbitMq" style="edgeLabel;html=1;align=center;verticalAlign=middle;resizable=0;points=[];" vertex="1" connectable="0" parent="U3XFC7SvyznPUDkY8S2--24">
          <mxGeometry x="0.0667" y="-2" relative="1" as="geometry">
            <mxPoint as="offset" />
          </mxGeometry>
        </mxCell>
        <mxCell id="U3XFC7SvyznPUDkY8S2--14" value="AirlinePriceReciver" style="swimlane;whiteSpace=wrap;html=1;startSize=23;" vertex="1" parent="1">
          <mxGeometry x="200" y="480" width="200" height="100" as="geometry" />
        </mxCell>
        <mxCell id="U3XFC7SvyznPUDkY8S2--120" value="Parsing&lt;br&gt;Validation&lt;div&gt;&lt;br/&gt;&lt;/div&gt;" style="text;html=1;align=center;verticalAlign=middle;whiteSpace=wrap;rounded=0;" vertex="1" parent="U3XFC7SvyznPUDkY8S2--14">
          <mxGeometry x="40" y="40" width="60" height="30" as="geometry" />
        </mxCell>
        <mxCell id="U3XFC7SvyznPUDkY8S2--77" style="edgeStyle=orthogonalEdgeStyle;rounded=0;orthogonalLoop=1;jettySize=auto;html=1;entryX=0.374;entryY=0;entryDx=0;entryDy=0;entryPerimeter=0;" edge="1" parent="1" source="U3XFC7SvyznPUDkY8S2--15" target="U3XFC7SvyznPUDkY8S2--11">
          <mxGeometry relative="1" as="geometry">
            <mxPoint x="50" y="40" as="targetPoint" />
            <Array as="points">
              <mxPoint x="70" y="70" />
            </Array>
          </mxGeometry>
        </mxCell>
        <mxCell id="U3XFC7SvyznPUDkY8S2--15" value="NotificationManager" style="swimlane;whiteSpace=wrap;html=1;" vertex="1" parent="1">
          <mxGeometry x="210" y="20" width="190" height="100" as="geometry">
            <mxRectangle x="240" y="20" width="150" height="30" as="alternateBounds" />
          </mxGeometry>
        </mxCell>
        <mxCell id="U3XFC7SvyznPUDkY8S2--25" style="edgeStyle=orthogonalEdgeStyle;rounded=0;orthogonalLoop=1;jettySize=auto;html=1;exitX=0.25;exitY=1;exitDx=0;exitDy=0;entryX=0.25;entryY=0;entryDx=0;entryDy=0;" edge="1" parent="1" source="U3XFC7SvyznPUDkY8S2--16" target="U3XFC7SvyznPUDkY8S2--14">
          <mxGeometry relative="1" as="geometry" />
        </mxCell>
        <mxCell id="U3XFC7SvyznPUDkY8S2--84" value="RabbitMQ" style="edgeLabel;html=1;align=center;verticalAlign=middle;resizable=0;points=[];" vertex="1" connectable="0" parent="U3XFC7SvyznPUDkY8S2--25">
          <mxGeometry x="-0.12" relative="1" as="geometry">
            <mxPoint as="offset" />
          </mxGeometry>
        </mxCell>
        <mxCell id="U3XFC7SvyznPUDkY8S2--118" style="edgeStyle=orthogonalEdgeStyle;rounded=0;orthogonalLoop=1;jettySize=auto;html=1;" edge="1" parent="1" source="U3XFC7SvyznPUDkY8S2--16">
          <mxGeometry relative="1" as="geometry">
            <mxPoint x="300" y="130" as="targetPoint" />
          </mxGeometry>
        </mxCell>
        <mxCell id="U3XFC7SvyznPUDkY8S2--16" value="AlertManegment" style="swimlane;whiteSpace=wrap;html=1;" vertex="1" parent="1">
          <mxGeometry x="200" y="230" width="200" height="100" as="geometry" />
        </mxCell>
        <mxCell id="U3XFC7SvyznPUDkY8S2--35" value="Table" style="shape=table;startSize=20;container=1;collapsible=1;childLayout=tableLayout;fixedRows=1;rowLines=0;fontStyle=1;align=center;resizeLast=1;html=1;" vertex="1" parent="1">
          <mxGeometry x="455" y="475" width="180" height="110" as="geometry" />
        </mxCell>
        <mxCell id="U3XFC7SvyznPUDkY8S2--36" value="" style="shape=tableRow;horizontal=0;startSize=0;swimlaneHead=0;swimlaneBody=0;fillColor=none;collapsible=0;dropTarget=0;points=[[0,0.5],[1,0.5]];portConstraint=eastwest;top=0;left=0;right=0;bottom=1;" vertex="1" parent="U3XFC7SvyznPUDkY8S2--35">
          <mxGeometry y="20" width="180" height="30" as="geometry" />
        </mxCell>
        <mxCell id="U3XFC7SvyznPUDkY8S2--37" value="PK" style="shape=partialRectangle;connectable=0;fillColor=none;top=0;left=0;bottom=0;right=0;fontStyle=1;overflow=hidden;whiteSpace=wrap;html=1;" vertex="1" parent="U3XFC7SvyznPUDkY8S2--36">
          <mxGeometry width="55" height="30" as="geometry">
            <mxRectangle width="55" height="30" as="alternateBounds" />
          </mxGeometry>
        </mxCell>
        <mxCell id="U3XFC7SvyznPUDkY8S2--38" value="FK" style="shape=partialRectangle;connectable=0;fillColor=none;top=0;left=0;bottom=0;right=0;align=left;spacingLeft=6;fontStyle=5;overflow=hidden;whiteSpace=wrap;html=1;" vertex="1" parent="U3XFC7SvyznPUDkY8S2--36">
          <mxGeometry x="55" width="125" height="30" as="geometry">
            <mxRectangle width="125" height="30" as="alternateBounds" />
          </mxGeometry>
        </mxCell>
        <mxCell id="U3XFC7SvyznPUDkY8S2--39" value="" style="shape=tableRow;horizontal=0;startSize=0;swimlaneHead=0;swimlaneBody=0;fillColor=none;collapsible=0;dropTarget=0;points=[[0,0.5],[1,0.5]];portConstraint=eastwest;top=0;left=0;right=0;bottom=0;" vertex="1" parent="U3XFC7SvyznPUDkY8S2--35">
          <mxGeometry y="50" width="180" height="30" as="geometry" />
        </mxCell>
        <mxCell id="U3XFC7SvyznPUDkY8S2--40" value="&lt;span style=&quot;text-align: left;&quot;&gt;RuleID&lt;/span&gt;" style="shape=partialRectangle;connectable=0;fillColor=none;top=0;left=0;bottom=0;right=0;editable=1;overflow=hidden;whiteSpace=wrap;html=1;" vertex="1" parent="U3XFC7SvyznPUDkY8S2--39">
          <mxGeometry width="55" height="30" as="geometry">
            <mxRectangle width="55" height="30" as="alternateBounds" />
          </mxGeometry>
        </mxCell>
        <mxCell id="U3XFC7SvyznPUDkY8S2--41" value="&lt;span style=&quot;text-align: center;&quot;&gt;ClientID&amp;nbsp; etc&lt;/span&gt;" style="shape=partialRectangle;connectable=0;fillColor=none;top=0;left=0;bottom=0;right=0;align=left;spacingLeft=6;overflow=hidden;whiteSpace=wrap;html=1;" vertex="1" parent="U3XFC7SvyznPUDkY8S2--39">
          <mxGeometry x="55" width="125" height="30" as="geometry">
            <mxRectangle width="125" height="30" as="alternateBounds" />
          </mxGeometry>
        </mxCell>
        <mxCell id="U3XFC7SvyznPUDkY8S2--42" value="" style="shape=tableRow;horizontal=0;startSize=0;swimlaneHead=0;swimlaneBody=0;fillColor=none;collapsible=0;dropTarget=0;points=[[0,0.5],[1,0.5]];portConstraint=eastwest;top=0;left=0;right=0;bottom=0;" vertex="1" parent="U3XFC7SvyznPUDkY8S2--35">
          <mxGeometry y="80" width="180" height="30" as="geometry" />
        </mxCell>
        <mxCell id="U3XFC7SvyznPUDkY8S2--43" value="" style="shape=partialRectangle;connectable=0;fillColor=none;top=0;left=0;bottom=0;right=0;editable=1;overflow=hidden;whiteSpace=wrap;html=1;" vertex="1" parent="U3XFC7SvyznPUDkY8S2--42">
          <mxGeometry width="55" height="30" as="geometry">
            <mxRectangle width="55" height="30" as="alternateBounds" />
          </mxGeometry>
        </mxCell>
        <mxCell id="U3XFC7SvyznPUDkY8S2--44" value="Row 2" style="shape=partialRectangle;connectable=0;fillColor=none;top=0;left=0;bottom=0;right=0;align=left;spacingLeft=6;overflow=hidden;whiteSpace=wrap;html=1;" vertex="1" parent="U3XFC7SvyznPUDkY8S2--42">
          <mxGeometry x="55" width="125" height="30" as="geometry">
            <mxRectangle width="125" height="30" as="alternateBounds" />
          </mxGeometry>
        </mxCell>
        <mxCell id="U3XFC7SvyznPUDkY8S2--48" style="edgeStyle=orthogonalEdgeStyle;rounded=0;orthogonalLoop=1;jettySize=auto;html=1;exitX=1;exitY=0.5;exitDx=0;exitDy=0;entryX=0.013;entryY=0.378;entryDx=0;entryDy=0;entryPerimeter=0;startArrow=block;startFill=1;" edge="1" parent="1" source="U3XFC7SvyznPUDkY8S2--16" target="U3XFC7SvyznPUDkY8S2--12">
          <mxGeometry relative="1" as="geometry" />
        </mxCell>
        <mxCell id="U3XFC7SvyznPUDkY8S2--117" value="Text" style="edgeLabel;html=1;align=center;verticalAlign=middle;resizable=0;points=[];" vertex="1" connectable="0" parent="U3XFC7SvyznPUDkY8S2--48">
          <mxGeometry x="-0.2471" y="1" relative="1" as="geometry">
            <mxPoint as="offset" />
          </mxGeometry>
        </mxCell>
        <mxCell id="U3XFC7SvyznPUDkY8S2--49" value="Class ClientRuleResponse" style="swimlane;fontStyle=1;align=center;verticalAlign=middle;childLayout=stackLayout;horizontal=1;startSize=29;horizontalStack=0;resizeParent=1;resizeParentMax=0;resizeLast=0;collapsible=0;marginBottom=0;html=1;whiteSpace=wrap;" vertex="1" parent="1">
          <mxGeometry x="670" y="375" width="160" height="100" as="geometry" />
        </mxCell>
        <mxCell id="U3XFC7SvyznPUDkY8S2--50" value="RuleID" style="text;html=1;strokeColor=none;fillColor=none;align=center;verticalAlign=middle;spacingLeft=4;spacingRight=4;overflow=hidden;rotatable=0;points=[[0,0.5],[1,0.5]];portConstraint=eastwest;whiteSpace=wrap;" vertex="1" parent="U3XFC7SvyznPUDkY8S2--49">
          <mxGeometry y="29" width="160" height="25" as="geometry" />
        </mxCell>
        <mxCell id="U3XFC7SvyznPUDkY8S2--51" value="ClientID" style="text;html=1;strokeColor=none;fillColor=none;align=center;verticalAlign=middle;spacingLeft=4;spacingRight=4;overflow=hidden;rotatable=0;points=[[0,0.5],[1,0.5]];portConstraint=eastwest;whiteSpace=wrap;" vertex="1" parent="U3XFC7SvyznPUDkY8S2--49">
          <mxGeometry y="54" width="160" height="25" as="geometry" />
        </mxCell>
        <mxCell id="U3XFC7SvyznPUDkY8S2--53" value="Parametrs(price,destinartion)" style="text;html=1;strokeColor=none;fillColor=none;align=left;verticalAlign=middle;spacingLeft=4;spacingRight=4;overflow=hidden;rotatable=0;points=[[0,0.5],[1,0.5]];portConstraint=eastwest;whiteSpace=wrap;" vertex="1" parent="U3XFC7SvyznPUDkY8S2--49">
          <mxGeometry y="79" width="160" height="21" as="geometry" />
        </mxCell>
        <mxCell id="U3XFC7SvyznPUDkY8S2--76" style="edgeStyle=orthogonalEdgeStyle;rounded=0;orthogonalLoop=1;jettySize=auto;html=1;exitX=0.5;exitY=1;exitDx=0;exitDy=0;exitPerimeter=0;entryX=0.5;entryY=0;entryDx=0;entryDy=0;" edge="1" parent="1" source="U3XFC7SvyznPUDkY8S2--55" target="U3XFC7SvyznPUDkY8S2--62">
          <mxGeometry relative="1" as="geometry" />
        </mxCell>
        <mxCell id="U3XFC7SvyznPUDkY8S2--55" value="&lt;b&gt;DB&amp;nbsp;&lt;br&gt;ClientInfo&lt;/b&gt;" style="strokeWidth=2;html=1;shape=mxgraph.flowchart.database;whiteSpace=wrap;" vertex="1" parent="1">
          <mxGeometry x="490" y="10" width="90" height="120" as="geometry" />
        </mxCell>
        <mxCell id="U3XFC7SvyznPUDkY8S2--57" style="edgeStyle=orthogonalEdgeStyle;rounded=0;orthogonalLoop=1;jettySize=auto;html=1;entryX=0;entryY=0.5;entryDx=0;entryDy=0;entryPerimeter=0;startArrow=classic;startFill=1;" edge="1" parent="1" source="U3XFC7SvyznPUDkY8S2--15" target="U3XFC7SvyznPUDkY8S2--55">
          <mxGeometry relative="1" as="geometry">
            <Array as="points">
              <mxPoint x="470" y="70" />
              <mxPoint x="470" y="70" />
            </Array>
          </mxGeometry>
        </mxCell>
        <mxCell id="U3XFC7SvyznPUDkY8S2--62" value="Table" style="shape=table;startSize=20;container=1;collapsible=1;childLayout=tableLayout;fixedRows=1;rowLines=0;fontStyle=1;align=center;resizeLast=1;html=1;" vertex="1" parent="1">
          <mxGeometry x="455" y="150" width="180" height="110" as="geometry" />
        </mxCell>
        <mxCell id="U3XFC7SvyznPUDkY8S2--63" value="" style="shape=tableRow;horizontal=0;startSize=0;swimlaneHead=0;swimlaneBody=0;fillColor=none;collapsible=0;dropTarget=0;points=[[0,0.5],[1,0.5]];portConstraint=eastwest;top=0;left=0;right=0;bottom=1;" vertex="1" parent="U3XFC7SvyznPUDkY8S2--62">
          <mxGeometry y="20" width="180" height="30" as="geometry" />
        </mxCell>
        <mxCell id="U3XFC7SvyznPUDkY8S2--64" value="PK" style="shape=partialRectangle;connectable=0;fillColor=none;top=0;left=0;bottom=0;right=0;fontStyle=1;overflow=hidden;whiteSpace=wrap;html=1;" vertex="1" parent="U3XFC7SvyznPUDkY8S2--63">
          <mxGeometry width="55" height="30" as="geometry">
            <mxRectangle width="55" height="30" as="alternateBounds" />
          </mxGeometry>
        </mxCell>
        <mxCell id="U3XFC7SvyznPUDkY8S2--65" value="" style="shape=partialRectangle;connectable=0;fillColor=none;top=0;left=0;bottom=0;right=0;align=left;spacingLeft=6;fontStyle=5;overflow=hidden;whiteSpace=wrap;html=1;" vertex="1" parent="U3XFC7SvyznPUDkY8S2--63">
          <mxGeometry x="55" width="125" height="30" as="geometry">
            <mxRectangle width="125" height="30" as="alternateBounds" />
          </mxGeometry>
        </mxCell>
        <mxCell id="U3XFC7SvyznPUDkY8S2--66" value="" style="shape=tableRow;horizontal=0;startSize=0;swimlaneHead=0;swimlaneBody=0;fillColor=none;collapsible=0;dropTarget=0;points=[[0,0.5],[1,0.5]];portConstraint=eastwest;top=0;left=0;right=0;bottom=0;" vertex="1" parent="U3XFC7SvyznPUDkY8S2--62">
          <mxGeometry y="50" width="180" height="30" as="geometry" />
        </mxCell>
        <mxCell id="U3XFC7SvyznPUDkY8S2--67" value="ClientID" style="shape=partialRectangle;connectable=0;fillColor=none;top=0;left=0;bottom=0;right=0;editable=1;overflow=hidden;whiteSpace=wrap;html=1;" vertex="1" parent="U3XFC7SvyznPUDkY8S2--66">
          <mxGeometry width="55" height="30" as="geometry">
            <mxRectangle width="55" height="30" as="alternateBounds" />
          </mxGeometry>
        </mxCell>
        <mxCell id="U3XFC7SvyznPUDkY8S2--68" value="ClientName... etc" style="shape=partialRectangle;connectable=0;fillColor=none;top=0;left=0;bottom=0;right=0;align=left;spacingLeft=6;overflow=hidden;whiteSpace=wrap;html=1;" vertex="1" parent="U3XFC7SvyznPUDkY8S2--66">
          <mxGeometry x="55" width="125" height="30" as="geometry">
            <mxRectangle width="125" height="30" as="alternateBounds" />
          </mxGeometry>
        </mxCell>
        <mxCell id="U3XFC7SvyznPUDkY8S2--69" value="" style="shape=tableRow;horizontal=0;startSize=0;swimlaneHead=0;swimlaneBody=0;fillColor=none;collapsible=0;dropTarget=0;points=[[0,0.5],[1,0.5]];portConstraint=eastwest;top=0;left=0;right=0;bottom=0;" vertex="1" parent="U3XFC7SvyznPUDkY8S2--62">
          <mxGeometry y="80" width="180" height="30" as="geometry" />
        </mxCell>
        <mxCell id="U3XFC7SvyznPUDkY8S2--70" value="" style="shape=partialRectangle;connectable=0;fillColor=none;top=0;left=0;bottom=0;right=0;editable=1;overflow=hidden;whiteSpace=wrap;html=1;" vertex="1" parent="U3XFC7SvyznPUDkY8S2--69">
          <mxGeometry width="55" height="30" as="geometry">
            <mxRectangle width="55" height="30" as="alternateBounds" />
          </mxGeometry>
        </mxCell>
        <mxCell id="U3XFC7SvyznPUDkY8S2--71" value="Row 2" style="shape=partialRectangle;connectable=0;fillColor=none;top=0;left=0;bottom=0;right=0;align=left;spacingLeft=6;overflow=hidden;whiteSpace=wrap;html=1;" vertex="1" parent="U3XFC7SvyznPUDkY8S2--69">
          <mxGeometry x="55" width="125" height="30" as="geometry">
            <mxRectangle width="125" height="30" as="alternateBounds" />
          </mxGeometry>
        </mxCell>
        <mxCell id="U3XFC7SvyznPUDkY8S2--79" value="Class ClientRule" style="swimlane;fontStyle=1;align=center;verticalAlign=middle;childLayout=stackLayout;horizontal=1;startSize=29;horizontalStack=0;resizeParent=1;resizeParentMax=0;resizeLast=0;collapsible=0;marginBottom=0;html=1;whiteSpace=wrap;" vertex="1" parent="1">
          <mxGeometry x="670" y="90" width="160" height="100" as="geometry" />
        </mxCell>
        <mxCell id="U3XFC7SvyznPUDkY8S2--80" value="RuleID" style="text;html=1;strokeColor=none;fillColor=none;align=center;verticalAlign=middle;spacingLeft=4;spacingRight=4;overflow=hidden;rotatable=0;points=[[0,0.5],[1,0.5]];portConstraint=eastwest;whiteSpace=wrap;" vertex="1" parent="U3XFC7SvyznPUDkY8S2--79">
          <mxGeometry y="29" width="160" height="25" as="geometry" />
        </mxCell>
        <mxCell id="U3XFC7SvyznPUDkY8S2--81" value="ClientID" style="text;html=1;strokeColor=none;fillColor=none;align=center;verticalAlign=middle;spacingLeft=4;spacingRight=4;overflow=hidden;rotatable=0;points=[[0,0.5],[1,0.5]];portConstraint=eastwest;whiteSpace=wrap;" vertex="1" parent="U3XFC7SvyznPUDkY8S2--79">
          <mxGeometry y="54" width="160" height="25" as="geometry" />
        </mxCell>
        <mxCell id="U3XFC7SvyznPUDkY8S2--82" value="Parametrs(price,destinartion)" style="text;html=1;strokeColor=none;fillColor=none;align=left;verticalAlign=middle;spacingLeft=4;spacingRight=4;overflow=hidden;rotatable=0;points=[[0,0.5],[1,0.5]];portConstraint=eastwest;whiteSpace=wrap;" vertex="1" parent="U3XFC7SvyznPUDkY8S2--79">
          <mxGeometry y="79" width="160" height="21" as="geometry" />
        </mxCell>
        <mxCell id="U3XFC7SvyznPUDkY8S2--86" value="Class ClientRuleRequest" style="swimlane;fontStyle=1;align=center;verticalAlign=middle;childLayout=stackLayout;horizontal=1;startSize=29;horizontalStack=0;resizeParent=1;resizeParentMax=0;resizeLast=0;collapsible=0;marginBottom=0;html=1;whiteSpace=wrap;" vertex="1" parent="1">
          <mxGeometry x="670" y="20" width="160" height="50" as="geometry" />
        </mxCell>
        <mxCell id="U3XFC7SvyznPUDkY8S2--89" value="Parametrs(price,destination)" style="text;html=1;strokeColor=none;fillColor=none;align=left;verticalAlign=middle;spacingLeft=4;spacingRight=4;overflow=hidden;rotatable=0;points=[[0,0.5],[1,0.5]];portConstraint=eastwest;whiteSpace=wrap;" vertex="1" parent="U3XFC7SvyznPUDkY8S2--86">
          <mxGeometry y="29" width="160" height="21" as="geometry" />
        </mxCell>
        <mxCell id="U3XFC7SvyznPUDkY8S2--93" value="" style="endArrow=none;html=1;rounded=0;fontStyle=1" edge="1" parent="1">
          <mxGeometry width="50" height="50" relative="1" as="geometry">
            <mxPoint x="660" y="730" as="sourcePoint" />
            <mxPoint x="650" as="targetPoint" />
          </mxGeometry>
        </mxCell>
        <mxCell id="U3XFC7SvyznPUDkY8S2--94" value="Class FlightInfo" style="swimlane;fontStyle=1;align=center;verticalAlign=middle;childLayout=stackLayout;horizontal=1;startSize=29;horizontalStack=0;resizeParent=1;resizeParentMax=0;resizeLast=0;collapsible=0;marginBottom=0;html=1;whiteSpace=wrap;" vertex="1" parent="1">
          <mxGeometry x="670" y="220" width="160" height="129" as="geometry" />
        </mxCell>
        <mxCell id="U3XFC7SvyznPUDkY8S2--95" value="RuleID" style="text;html=1;strokeColor=none;fillColor=none;align=center;verticalAlign=middle;spacingLeft=4;spacingRight=4;overflow=hidden;rotatable=0;points=[[0,0.5],[1,0.5]];portConstraint=eastwest;whiteSpace=wrap;" vertex="1" parent="U3XFC7SvyznPUDkY8S2--94">
          <mxGeometry y="29" width="160" height="25" as="geometry" />
        </mxCell>
        <mxCell id="U3XFC7SvyznPUDkY8S2--100" value="FlightName" style="text;html=1;strokeColor=none;fillColor=none;align=center;verticalAlign=middle;spacingLeft=4;spacingRight=4;overflow=hidden;rotatable=0;points=[[0,0.5],[1,0.5]];portConstraint=eastwest;whiteSpace=wrap;" vertex="1" parent="U3XFC7SvyznPUDkY8S2--94">
          <mxGeometry y="54" width="160" height="25" as="geometry" />
        </mxCell>
        <mxCell id="U3XFC7SvyznPUDkY8S2--101" value="FlightDest" style="text;html=1;strokeColor=none;fillColor=none;align=center;verticalAlign=middle;spacingLeft=4;spacingRight=4;overflow=hidden;rotatable=0;points=[[0,0.5],[1,0.5]];portConstraint=eastwest;whiteSpace=wrap;" vertex="1" parent="U3XFC7SvyznPUDkY8S2--94">
          <mxGeometry y="79" width="160" height="25" as="geometry" />
        </mxCell>
        <mxCell id="U3XFC7SvyznPUDkY8S2--102" value="FlightLand" style="text;html=1;strokeColor=none;fillColor=none;align=center;verticalAlign=middle;spacingLeft=4;spacingRight=4;overflow=hidden;rotatable=0;points=[[0,0.5],[1,0.5]];portConstraint=eastwest;whiteSpace=wrap;" vertex="1" parent="U3XFC7SvyznPUDkY8S2--94">
          <mxGeometry y="104" width="160" height="25" as="geometry" />
        </mxCell>
        <mxCell id="U3XFC7SvyznPUDkY8S2--104" value="&lt;span style=&quot;color: rgb(0, 0, 0); font-family: Helvetica; font-size: 12px; font-style: normal; font-variant-ligatures: normal; font-variant-caps: normal; font-weight: 700; letter-spacing: normal; orphans: 2; text-align: center; text-indent: 0px; text-transform: none; widows: 2; word-spacing: 0px; -webkit-text-stroke-width: 0px; white-space: normal; background-color: rgb(251, 251, 251); text-decoration-thickness: initial; text-decoration-style: initial; text-decoration-color: initial; display: inline !important; float: none;&quot;&gt;FlightInfo&lt;/span&gt;" style="text;whiteSpace=wrap;html=1;" vertex="1" parent="1">
          <mxGeometry x="270" y="360" width="70" height="30" as="geometry" />
        </mxCell>
        <mxCell id="U3XFC7SvyznPUDkY8S2--105" value="&lt;span style=&quot;color: rgb(0, 0, 0); font-family: Helvetica; font-size: 12px; font-style: normal; font-variant-ligatures: normal; font-variant-caps: normal; font-weight: 700; letter-spacing: normal; orphans: 2; text-align: center; text-indent: 0px; text-transform: none; widows: 2; word-spacing: 0px; -webkit-text-stroke-width: 0px; white-space: normal; background-color: rgb(251, 251, 251); text-decoration-thickness: initial; text-decoration-style: initial; text-decoration-color: initial; display: inline !important; float: none;&quot;&gt;ClientRule&lt;/span&gt;" style="text;whiteSpace=wrap;html=1;" vertex="1" parent="1">
          <mxGeometry x="190" y="405" width="90" height="40" as="geometry" />
        </mxCell>
        <mxCell id="U3XFC7SvyznPUDkY8S2--109" value="&lt;span style=&quot;color: rgb(0, 0, 0); font-family: Helvetica; font-size: 12px; font-style: normal; font-variant-ligatures: normal; font-variant-caps: normal; font-weight: 700; letter-spacing: normal; orphans: 2; text-align: center; text-indent: 0px; text-transform: none; widows: 2; word-spacing: 0px; -webkit-text-stroke-width: 0px; white-space: normal; background-color: rgb(251, 251, 251); text-decoration-thickness: initial; text-decoration-style: initial; text-decoration-color: initial; display: inline !important; float: none;&quot;&gt;ClientRuleRequest&lt;/span&gt;" style="text;whiteSpace=wrap;html=1;" vertex="1" parent="1">
          <mxGeometry x="60" y="210" width="140" height="40" as="geometry" />
        </mxCell>
        <mxCell id="U3XFC7SvyznPUDkY8S2--110" value="Class Notiffication massage" style="swimlane;fontStyle=1;align=center;verticalAlign=middle;childLayout=stackLayout;horizontal=1;startSize=29;horizontalStack=0;resizeParent=1;resizeParentMax=0;resizeLast=0;collapsible=0;marginBottom=0;html=1;whiteSpace=wrap;" vertex="1" parent="1">
          <mxGeometry x="670" y="500" width="160" height="75" as="geometry" />
        </mxCell>
        <mxCell id="U3XFC7SvyznPUDkY8S2--112" value="Flightinfo" style="text;html=1;strokeColor=none;fillColor=none;align=center;verticalAlign=middle;spacingLeft=4;spacingRight=4;overflow=hidden;rotatable=0;points=[[0,0.5],[1,0.5]];portConstraint=eastwest;whiteSpace=wrap;" vertex="1" parent="U3XFC7SvyznPUDkY8S2--110">
          <mxGeometry y="29" width="160" height="25" as="geometry" />
        </mxCell>
        <mxCell id="U3XFC7SvyznPUDkY8S2--113" value="string(ClientName)" style="text;html=1;strokeColor=none;fillColor=none;align=center;verticalAlign=middle;spacingLeft=4;spacingRight=4;overflow=hidden;rotatable=0;points=[[0,0.5],[1,0.5]];portConstraint=eastwest;whiteSpace=wrap;" vertex="1" parent="U3XFC7SvyznPUDkY8S2--110">
          <mxGeometry y="54" width="160" height="21" as="geometry" />
        </mxCell>
        <mxCell id="U3XFC7SvyznPUDkY8S2--116" value="&lt;span style=&quot;color: rgb(0, 0, 0); font-family: Helvetica; font-size: 12px; font-style: normal; font-variant-ligatures: normal; font-variant-caps: normal; font-weight: 700; letter-spacing: normal; orphans: 2; text-align: center; text-indent: 0px; text-transform: none; widows: 2; word-spacing: 0px; -webkit-text-stroke-width: 0px; white-space: normal; background-color: rgb(251, 251, 251); text-decoration-thickness: initial; text-decoration-style: initial; text-decoration-color: initial; display: inline !important; float: none;&quot;&gt;&lt;span&gt;&amp;nbsp;&lt;/span&gt;Notiffication massage&lt;/span&gt;" style="text;whiteSpace=wrap;html=1;" vertex="1" parent="1">
          <mxGeometry x="50" y="30" width="160" height="40" as="geometry" />
        </mxCell>
        <mxCell id="U3XFC7SvyznPUDkY8S2--122" value="Send Notify&amp;nbsp;&lt;br&gt;by client name and filihtinfo" style="text;html=1;align=center;verticalAlign=middle;resizable=0;points=[];autosize=1;strokeColor=none;fillColor=none;" vertex="1" parent="1">
          <mxGeometry x="225" y="43" width="170" height="40" as="geometry" />
        </mxCell>
      </root>
    </mxGraphModel>
  </diagram>
</mxfile>
